<?xml version="1.0" encoding="UTF-8"?><svg id="Livello_1" xmlns="http://www.w3.org/2000/svg" viewBox="0 0 47.01 45.08"><defs><style>.cls-1{fill:#fff;stroke-width:0px;}</style></defs><path class="cls-1" d="M23.4,2h0c.18,0,.62.05.86.53l5.04,10.03c.73,1.46,2.14,2.47,3.76,2.69l11.12,1.54c.54.07.73.48.78.65s.15.61-.24.99l-7.98,7.89c-1.16,1.15-1.69,2.8-1.4,4.4l1.97,11.05c.05.3-.01.56-.2.78-.19.23-.47.36-.75.36-.15,0-.3-.04-.44-.11l-9.97-5.15c-.7-.36-1.49-.55-2.28-.55-.81,0-1.62.2-2.34.59l-9.9,5.29c-.15.08-.3.12-.45.12-.28,0-.56-.13-.75-.36-.18-.22-.25-.48-.21-.77l1.82-11.07c.27-1.61-.28-3.25-1.46-4.39l-8.09-7.78c-.39-.38-.31-.82-.25-.99.05-.17.24-.58.77-.66l11.09-1.69c1.62-.25,3.01-1.27,3.72-2.74l4.9-10.1c.24-.49.69-.54.87-.54M23.4,0c-1.06,0-2.13.56-2.67,1.67l-4.9,10.1c-.43.88-1.26,1.49-2.22,1.64l-11.09,1.69c-2.43.37-3.38,3.37-1.61,5.07l8.09,7.78c.7.68,1.03,1.66.87,2.62l-1.82,11.07c-.31,1.91,1.21,3.45,2.93,3.45.46,0,.94-.11,1.4-.36l9.9-5.29c.44-.23.92-.35,1.4-.35.47,0,.93.11,1.36.33l9.97,5.15c.45.23.91.34,1.36.34,1.74,0,3.26-1.57,2.92-3.49l-1.97-11.05c-.17-.96.14-1.94.83-2.63l7.98-7.89c1.75-1.73.76-4.71-1.68-5.05l-11.12-1.54c-.97-.13-1.81-.73-2.24-1.61L26.05,1.63C25.5.54,24.45,0,23.4,0h0Z"/></svg>