<?xml version="1.0" encoding="UTF-8"?><svg id="Livello_1" xmlns="http://www.w3.org/2000/svg" viewBox="0 0 21.34 15.62"><defs><style>.cls-1{fill:#fff;stroke-width:0px;}</style></defs><path class="cls-1" d="M0,.07v2.77s.03.07.07.07h7.73V.07s-.03-.07-.07-.07H.07s-.07.03-.07.07Z"/><path class="cls-1" d="M.07,15.62h7.66s.07-.03.07-.07v-2.85H.07s-.07.03-.07.07v2.77s.03.07.07.07Z"/><path class="cls-1" d="M7.8,2.92v3.43H.07s-.07.03-.07.07v2.77s.03.07.07.07h7.73v3.43h2.85s.07-.03.07-.07V2.99s-.03-.07-.07-.07h-2.85Z"/><path class="cls-1" d="M21.24.04h-6.68c-.05,0-.1.04-.1.1v2.83h6.77c.05,0,.1-.04.1-.1V.13c0-.05-.04-.1-.1-.1Z"/><path class="cls-1" d="M11.63,2.88s-.08.04-.08.08v12.47c0,.08.06.14.14.14h2.64c.08,0,.14-.06.14-.14v-6.19h6.73c.08,0,.14-.06.14-.14v-2.65c0-.08-.06-.14-.14-.14h-6.73v-3.44h-2.84Z"/></svg>